<mxfile host="Electron" agent="Mozilla/5.0 (Windows NT 10.0; Win64; x64) AppleWebKit/537.36 (KHTML, like Gecko) draw.io/24.7.17 Chrome/128.0.6613.36 Electron/32.0.1 Safari/537.36" version="24.7.17">
  <diagram name="Page-1" id="-dCks2q-jp3kkcwOd5By">
    <mxGraphModel dx="1050" dy="621" grid="1" gridSize="10" guides="1" tooltips="1" connect="1" arrows="1" fold="1" page="1" pageScale="1" pageWidth="850" pageHeight="1100" math="0" shadow="0">
      <root>
        <mxCell id="0" />
        <mxCell id="1" parent="0" />
        <mxCell id="NlnUJi-LbzasbPeJpz73-1" value="" style="whiteSpace=wrap;html=1;aspect=fixed;" vertex="1" parent="1">
          <mxGeometry x="180" y="40" width="480" height="480" as="geometry" />
        </mxCell>
        <mxCell id="NlnUJi-LbzasbPeJpz73-2" value="Authentification" style="text;html=1;align=center;verticalAlign=middle;whiteSpace=wrap;rounded=0;" vertex="1" parent="1">
          <mxGeometry x="392.5" y="60" width="55" height="30" as="geometry" />
        </mxCell>
        <mxCell id="NlnUJi-LbzasbPeJpz73-3" value="Actor" style="shape=umlActor;verticalLabelPosition=bottom;verticalAlign=top;html=1;outlineConnect=0;" vertex="1" parent="1">
          <mxGeometry x="40" y="200" width="70" height="120" as="geometry" />
        </mxCell>
        <mxCell id="NlnUJi-LbzasbPeJpz73-8" style="edgeStyle=orthogonalEdgeStyle;rounded=0;orthogonalLoop=1;jettySize=auto;html=1;" edge="1" parent="1" source="NlnUJi-LbzasbPeJpz73-4" target="NlnUJi-LbzasbPeJpz73-5">
          <mxGeometry relative="1" as="geometry" />
        </mxCell>
        <mxCell id="NlnUJi-LbzasbPeJpz73-4" value="Se connecter avec formulaire" style="ellipse;whiteSpace=wrap;html=1;" vertex="1" parent="1">
          <mxGeometry x="270" y="120" width="120" height="80" as="geometry" />
        </mxCell>
        <mxCell id="NlnUJi-LbzasbPeJpz73-9" style="edgeStyle=orthogonalEdgeStyle;rounded=0;orthogonalLoop=1;jettySize=auto;html=1;exitX=0.5;exitY=1;exitDx=0;exitDy=0;" edge="1" parent="1" source="NlnUJi-LbzasbPeJpz73-5" target="NlnUJi-LbzasbPeJpz73-7">
          <mxGeometry relative="1" as="geometry" />
        </mxCell>
        <mxCell id="NlnUJi-LbzasbPeJpz73-10" style="edgeStyle=orthogonalEdgeStyle;rounded=0;orthogonalLoop=1;jettySize=auto;html=1;exitX=1;exitY=0.5;exitDx=0;exitDy=0;" edge="1" parent="1" source="NlnUJi-LbzasbPeJpz73-5" target="NlnUJi-LbzasbPeJpz73-6">
          <mxGeometry relative="1" as="geometry" />
        </mxCell>
        <mxCell id="NlnUJi-LbzasbPeJpz73-5" value="VÃ©rification de compte" style="ellipse;whiteSpace=wrap;html=1;" vertex="1" parent="1">
          <mxGeometry x="490" y="120" width="120" height="80" as="geometry" />
        </mxCell>
        <mxCell id="NlnUJi-LbzasbPeJpz73-6" value="Envoyer une message d&#39;erreur" style="ellipse;whiteSpace=wrap;html=1;" vertex="1" parent="1">
          <mxGeometry x="490" y="240" width="120" height="80" as="geometry" />
        </mxCell>
        <mxCell id="NlnUJi-LbzasbPeJpz73-7" value="Envoyer un JWT&lt;div&gt;&lt;br&gt;&lt;/div&gt;" style="ellipse;whiteSpace=wrap;html=1;" vertex="1" parent="1">
          <mxGeometry x="350" y="240" width="120" height="80" as="geometry" />
        </mxCell>
        <mxCell id="NlnUJi-LbzasbPeJpz73-11" value="Se connecter avec oauth" style="ellipse;whiteSpace=wrap;html=1;" vertex="1" parent="1">
          <mxGeometry x="270" y="360" width="120" height="80" as="geometry" />
        </mxCell>
      </root>
    </mxGraphModel>
  </diagram>
</mxfile>
